<svg xmlns="http://www.w3.org/2000/svg" xmlns:xlink="http://www.w3.org/1999/xlink" width="161.325" height="39.907" viewBox="0 0 161.325 39.907">
  <defs>
    <clipPath id="clip-path">
      <rect id="Retângulo_5" data-name="Retângulo 5" width="161.325" height="39.907" transform="translate(99 267)" fill="#fff"/>
    </clipPath>
  </defs>
  <g id="Grupo_1" data-name="Grupo 1" transform="translate(-99 -267)" clip-path="url(#clip-path)">
    <path id="Caminho_3" data-name="Caminho 3" d="M99,286.954C99,275.023,107.845,267,119.262,267a17.265,17.265,0,0,1,15.428,8.64l-5.708,2.983a11.392,11.392,0,0,0-9.72-5.6c-7.663,0-13.319,5.76-13.319,13.937,0,8.023,5.657,13.937,13.319,13.937a11.5,11.5,0,0,0,9.72-5.605l5.76,2.88c-2.931,4.628-7.765,8.743-15.479,8.743C107.845,306.907,99,298.782,99,286.954Z"/>
    <path id="Caminho_4" data-name="Caminho 4" d="M167.192,306.187l-2.828-7.457H146.672l-2.828,7.457H136.13l15.171-38.57h8.429l15.171,38.57ZM155.466,274.4l-6.942,18.412h13.885Z"/>
    <path id="Caminho_5" data-name="Caminho 5" d="M179.02,306.187v-38.57h26.433v5.965H185.808v9.925h19.285v5.965H185.808v10.745h19.645v5.97Z"/>
    <path id="Caminho_6" data-name="Caminho 6" d="M231.886,306.187v-3.806a11.232,11.232,0,0,1-8.948,4.526c-7.1,0-12.394-5.451-12.394-14.708,0-9,5.194-14.657,12.394-14.657a10.723,10.723,0,0,1,8.948,4.577v-14.5h6.068v38.57Zm0-8.434V286.7a9.1,9.1,0,0,0-7.148-3.754c-4.885,0-7.92,3.857-7.92,9.257,0,5.451,3.086,9.308,7.92,9.308a9.036,9.036,0,0,0,7.148-3.754Z"/>
    <path id="Caminho_7" data-name="Caminho 7" d="M254.357,306.289h-9.1v-1.08h9.1c2.983,0,4.834-1.286,4.834-3.7,0-2.366-1.8-3.7-4.834-3.7h-9.1v-1.085h9.1c3.651,0,5.965,1.594,5.965,4.731C260.325,304.644,258.011,306.289,254.357,306.289Z"/>
    <path id="Caminho_8" data-name="Caminho 8" d="M260.068,293.793H245.257v-7.714h1.131v6.685h5.5v-6.585h1.131v6.531h6.994v1.08Z"/>
    <path id="Caminho_9" data-name="Caminho 9" d="M258.525,286.131l-.977-.617a2.932,2.932,0,0,0,1.646-2.417c0-1.646-1.389-2.674-3.394-2.674H245.257v-1.029H255.8c3.086,0,4.526,1.646,4.526,3.7a3.432,3.432,0,0,1-1.8,3.037Z"/>
    <path id="Caminho_10" data-name="Caminho 10" d="M260.068,276.308H245.257v-7.714h1.131v6.685h5.5v-6.531h1.131v6.531h6.994v1.029Z"/>
  </g>
</svg>
